# xmcd
#
# Track frame offsets:
#	151
#	15836
#	44581
#	66982
#	95492
#	135817
#	179758
#
# Disc length: 2940 seconds
#
# Revision: 1
# Processed by: cddbd v1.5.1PL2 Copyright (c) Steve Scherf et al.
# Submitted via: CDmax 2.0
#
DISCID=570b7a07
DTITLE=Eric Clapton - Two Days In Osaka (disc2)
DYEAR=1997
DGENRE=Blues
TTITLE0=I'm Tore Down
TTITLE1=Have You Ever Loved a Woman
TTITLE2=Cocaine
TTITLE3=Tearing Us Apart
TTITLE4=Old Love
TTITLE5=Sunshine of Your Love
TTITLE6=Everyday I Have the Blues
EXTD=Eric Clapton\t\tguitar, vocals\nAndy Fairweather-Low\tguitar\nJoe Sample
EXTD=\t\tkeyboards\nChris Stainton\t\tkeyboards\nSteve Gadd\t\tdrums\nDave Br
EXTD=onze\t\tbass\nTessa Niles\t\tbackground vocals\nKatie Kissoon\t\tbackgro
EXTD=und vocals\n\nRecorded live at Osaka Castle Hall, Osaka, Japan on Octobe
EXTD=r 21st, 1997
EXTT0=
EXTT1=
EXTT2=
EXTT3=
EXTT4=
EXTT5=
EXTT6=
PLAYORDER=
